# xmcd
#
# Track frame offsets:
#	150
#	16130
#	31290
#	48990
#	67122
#	83861
#	99377
#	115773
#	132189
#	148342
#	163131
#	181673
#	198857
#	215977
#	231694
#	247181
#	262946
#
# Disc length: 3747 seconds
#
# Revision: 0
# Processed by: cddbd v1.5.2PL0 Copyright (c) Steve Scherf et al.
# Submitted via: dBpowerAMP V4.0
#
DISCID=f90ea111
DTITLE=Johnny Clegg - One Life
DYEAR=1900
DGENRE=
TTITLE0=Daughter of Eden
TTITLE1=Jongosi
TTITLE2=Makhabeleni
TTITLE3=Thamela - Die Son Trek Water
TTITLE4=The Revolution Will Eat Its Children
TTITLE5=Utshani Obulele
TTITLE6=Faut Pas Baisser Les Bras
TTITLE7=Devana
TTITLE8=Bull Heart
TTITLE9=Day In The Life
TTITLE10=Boy Soldier
TTITLE11=Touch The Sun
TTITLE12=4 Box Square
TTITLE13=I Don't Want To Be Away
TTITLE14=Locked And Loaded
TTITLE15=Utshani Obulele - Zulu Version
TTITLE16=Asilazi
EXTD=
EXTT0=
EXTT1=
EXTT2=
EXTT3=
EXTT4=
EXTT5=
EXTT6=
EXTT7=
EXTT8=
EXTT9=
EXTT10=
EXTT11=
EXTT12=
EXTT13=
EXTT14=
EXTT15=
EXTT16=
PLAYORDER=
